<svg width="174" height="66" viewBox="0 0 174 66" fill="none" xmlns="http://www.w3.org/2000/svg">
<g clip-path="url(#clip0_0_3)">
<path d="M75.68 0.95L68.2 14.33H67.72L60.18 0.95H48.44L63.04 24.48V44.49H72.89V24.48L87.3 0.95H75.68Z" fill="#231F20"/>
<path d="M129.64 44.49L113.28 0.95H102.52L86.22 44.49H96.92L100.17 35.25H115.68L118.93 44.49H129.63H129.64ZM107.99 26.13H103.38L107.08 15.61L107.69 12.57H108.18L108.79 15.61L112.49 26.13H108H107.99Z" fill="#231F20"/>
<path d="M137.35 44.49V0.95H148.11L163.98 27.34H164.47L164.04 21.5V0.95H173.65V44.49H163.62L146.9 16.64H146.41L146.9 22.23V44.49H137.35Z" fill="#231F20"/>
<path d="M63.02 65.54V53.9H67.12C67.87 53.9 68.54 54.05 69.14 54.36C69.74 54.67 70.21 55.1 70.56 55.65C70.91 56.2 71.09 56.84 71.09 57.57C71.09 58.3 70.91 58.94 70.56 59.5C70.21 60.06 69.73 60.49 69.14 60.8C68.54 61.11 67.87 61.26 67.12 61.26H64.24V59.18H67.18C67.56 59.18 67.88 59.1 68.14 58.95C68.4 58.8 68.6 58.6 68.73 58.36C68.86 58.12 68.93 57.85 68.93 57.57C68.93 57.29 68.86 57.03 68.73 56.79C68.6 56.55 68.41 56.36 68.14 56.2C67.88 56.05 67.56 55.97 67.18 55.97H65.21V65.53H63.02V65.54Z" fill="#231F20"/>
<path d="M73.12 65.54V53.9H77.36C78.14 53.9 78.82 54.06 79.4 54.37C79.98 54.68 80.43 55.12 80.76 55.67C81.08 56.22 81.25 56.86 81.25 57.57C81.25 58.1 81.14 58.59 80.92 59.03C80.7 59.47 80.39 59.85 80.01 60.17C79.62 60.49 79.17 60.74 78.66 60.91C78.14 61.08 77.59 61.17 77.01 61.17H74.34V59.15H77.35C77.69 59.15 77.98 59.08 78.23 58.94C78.48 58.8 78.68 58.61 78.82 58.36C78.97 58.12 79.04 57.84 79.04 57.54C79.04 57.26 78.98 57 78.85 56.75C78.72 56.5 78.54 56.31 78.29 56.16C78.04 56.01 77.74 55.93 77.38 55.93H75.31V65.54H73.12ZM75.69 60.26H78.26L81.87 65.41V65.54H79.35L75.69 60.26Z" fill="#231F20"/>
<path d="M89.19 65.8C88.32 65.8 87.52 65.65 86.78 65.34C86.04 65.03 85.39 64.6 84.84 64.04C84.29 63.48 83.87 62.83 83.56 62.1C83.26 61.36 83.1 60.57 83.1 59.73C83.1 58.89 83.25 58.09 83.56 57.36C83.86 56.62 84.29 55.98 84.84 55.42C85.39 54.86 86.03 54.43 86.78 54.12C87.52 53.81 88.33 53.66 89.19 53.66C90.05 53.66 90.86 53.81 91.6 54.12C92.34 54.43 92.98 54.86 93.54 55.42C94.09 55.98 94.52 56.63 94.82 57.36C95.12 58.1 95.28 58.89 95.28 59.73C95.28 60.57 95.13 61.37 94.82 62.1C94.52 62.84 94.09 63.49 93.54 64.04C92.99 64.6 92.34 65.03 91.6 65.34C90.86 65.65 90.06 65.8 89.19 65.8ZM89.19 63.72C89.92 63.72 90.57 63.55 91.16 63.22C91.75 62.88 92.21 62.42 92.56 61.81C92.91 61.2 93.08 60.51 93.08 59.72C93.08 58.93 92.91 58.22 92.56 57.62C92.21 57.02 91.75 56.56 91.16 56.22C90.57 55.88 89.92 55.72 89.19 55.72C88.46 55.72 87.82 55.89 87.24 56.22C86.66 56.55 86.19 57.02 85.84 57.62C85.49 58.22 85.32 58.92 85.32 59.72C85.32 60.52 85.49 61.21 85.84 61.81C86.19 62.41 86.65 62.88 87.24 63.22C87.83 63.56 88.48 63.72 89.19 63.72Z" fill="#231F20"/>
<path d="M97.71 65.54V53.9H101.65C102.89 53.9 103.95 54.15 104.84 54.64C105.74 55.13 106.42 55.82 106.91 56.69C107.4 57.56 107.63 58.57 107.63 59.72C107.63 60.87 107.39 61.88 106.91 62.76C106.43 63.64 105.74 64.32 104.84 64.81C103.95 65.3 102.88 65.54 101.65 65.54H97.71ZM99.9 63.46H101.54C102.4 63.46 103.11 63.31 103.69 63C104.27 62.69 104.7 62.25 104.98 61.69C105.27 61.13 105.41 60.47 105.41 59.72C105.41 58.97 105.27 58.3 104.98 57.74C104.69 57.18 104.26 56.75 103.69 56.44C103.12 56.13 102.4 55.98 101.54 55.98H99.9V63.46Z" fill="#231F20"/>
<path d="M114.48 65.8C113.57 65.8 112.77 65.6 112.1 65.21C111.42 64.82 110.9 64.26 110.52 63.53C110.14 62.8 109.96 61.92 109.96 60.9V53.89H112.14V61.03C112.14 61.54 112.23 62 112.4 62.4C112.57 62.81 112.84 63.13 113.19 63.36C113.54 63.59 113.97 63.71 114.48 63.71C114.99 63.71 115.43 63.59 115.78 63.36C116.13 63.13 116.39 62.81 116.56 62.4C116.73 61.99 116.82 61.54 116.82 61.03V53.89H119V60.9C119 61.86 118.82 62.72 118.45 63.45C118.08 64.19 117.56 64.76 116.89 65.17C116.22 65.58 115.42 65.79 114.48 65.79V65.8Z" fill="#231F20"/>
<path d="M127.42 65.8C126.56 65.8 125.76 65.65 125.02 65.34C124.28 65.03 123.63 64.6 123.08 64.05C122.53 63.5 122.1 62.85 121.79 62.11C121.48 61.37 121.33 60.58 121.33 59.72C121.33 58.86 121.48 58.07 121.79 57.33C122.1 56.59 122.53 55.95 123.08 55.39C123.63 54.83 124.28 54.41 125.02 54.1C125.76 53.79 126.56 53.64 127.42 53.64C128.04 53.64 128.61 53.71 129.13 53.86C129.65 54.01 130.13 54.22 130.57 54.5C131.01 54.78 131.41 55.13 131.78 55.54L130.23 57.04C130 56.77 129.75 56.54 129.47 56.34C129.19 56.14 128.89 55.99 128.55 55.88C128.21 55.77 127.84 55.72 127.43 55.72C126.7 55.72 126.05 55.89 125.45 56.22C124.86 56.55 124.39 57.01 124.04 57.61C123.69 58.21 123.52 58.91 123.52 59.72C123.52 60.53 123.69 61.22 124.04 61.83C124.39 62.43 124.86 62.9 125.45 63.23C126.04 63.56 126.7 63.73 127.43 63.73C128.08 63.73 128.66 63.59 129.16 63.32C129.66 63.05 130.11 62.67 130.5 62.2L132.06 63.68C131.68 64.14 131.25 64.52 130.78 64.84C130.3 65.16 129.78 65.4 129.22 65.56C128.66 65.72 128.05 65.8 127.41 65.8H127.42Z" fill="#231F20"/>
<path d="M133.5 55.98V53.9H142.2V55.98H133.5ZM136.75 65.54V55H138.95V65.54H136.75Z" fill="#231F20"/>
<path d="M144.12 65.54V53.9H146.31V65.54H144.12Z" fill="#231F20"/>
<path d="M154.88 65.8C154.01 65.8 153.21 65.65 152.47 65.34C151.73 65.03 151.08 64.6 150.53 64.04C149.98 63.48 149.56 62.83 149.25 62.1C148.95 61.36 148.79 60.57 148.79 59.73C148.79 58.89 148.94 58.09 149.25 57.36C149.55 56.62 149.98 55.98 150.53 55.42C151.08 54.86 151.72 54.43 152.47 54.12C153.21 53.81 154.02 53.66 154.88 53.66C155.74 53.66 156.55 53.81 157.29 54.12C158.03 54.43 158.67 54.86 159.23 55.42C159.78 55.98 160.21 56.63 160.51 57.36C160.81 58.1 160.97 58.89 160.97 59.73C160.97 60.57 160.82 61.37 160.51 62.1C160.21 62.84 159.78 63.49 159.23 64.04C158.68 64.6 158.03 65.03 157.29 65.34C156.55 65.65 155.75 65.8 154.88 65.8ZM154.88 63.72C155.61 63.72 156.26 63.55 156.85 63.22C157.44 62.88 157.9 62.42 158.25 61.81C158.6 61.2 158.77 60.51 158.77 59.72C158.77 58.93 158.6 58.22 158.25 57.62C157.9 57.02 157.44 56.56 156.85 56.22C156.26 55.88 155.61 55.72 154.88 55.72C154.15 55.72 153.51 55.89 152.93 56.22C152.35 56.55 151.88 57.02 151.53 57.62C151.18 58.22 151.01 58.92 151.01 59.72C151.01 60.52 151.18 61.21 151.53 61.81C151.88 62.41 152.34 62.88 152.93 63.22C153.52 63.56 154.17 63.72 154.88 63.72Z" fill="#231F20"/>
<path d="M163.4 65.54V53.9H165.95L170.63 61.71H170.76L170.63 59.47V53.91H172.81V65.55H170.5L165.56 57.31H165.43L165.56 59.55V65.55H163.4V65.54Z" fill="#231F20"/>
<path d="M3.66 22.13C14.09 22.13 22.55 13.67 22.55 3.24V0C19.48 0.07 16.61 0.63 13.96 1.7C11.12 2.86 8.66 4.48 6.57 6.56C4.48 8.65 2.86 11.07 1.71 13.83C0.63 16.41 0.07 19.18 0 22.12H3.66V22.13Z" fill="#231F20"/>
<path d="M23.74 3.23C23.74 13.66 32.2 22.12 42.63 22.12H46.29C46.22 19.18 45.67 16.42 44.58 13.83C43.43 11.07 41.79 8.65 39.69 6.56C37.58 4.47 35.13 2.85 32.33 1.7C29.68 0.62 26.81 0.06 23.74 0V3.23Z" fill="#231F20"/>
<path d="M42.63 23.31C32.2 23.31 23.74 31.77 23.74 42.2V45.43C26.83 45.36 29.7 44.81 32.33 43.72C35.13 42.56 37.58 40.94 39.69 38.85C41.8 36.76 43.43 34.34 44.58 31.58C45.66 29 46.22 26.23 46.29 23.3H42.63V23.31Z" fill="#231F20"/>
<path d="M22.55 42.21C22.55 31.78 14.09 23.32 3.66 23.32H0C0.07 26.26 0.62 29.02 1.71 31.6C2.86 34.36 4.49 36.78 6.57 38.87C8.65 40.96 11.12 42.58 13.96 43.74C16.62 44.82 19.49 45.38 22.55 45.45V42.22V42.21Z" fill="#231F20"/>
</g>
<defs>
<clipPath id="clip0_0_3">
<rect width="173.66" height="65.8" fill="white"/>
</clipPath>
</defs>
</svg>
